<?xml version="1.0" encoding="UTF-8" standalone="no"?>
<!-- Created with Inkscape (http://www.inkscape.org/) -->
<svg
   xmlns:svg="http://www.w3.org/2000/svg"
   xmlns="http://www.w3.org/2000/svg"
   version="1.0"
   width="300"
   height="89"
   id="svg3833">
  <defs
     id="defs3835">
	

	

	

	

	

	

	

	

	

	

	

	

	

	

	

	

	

	

	

	

	

	

	

	

	

	

	

	

	

	
</defs>
  <g
     transform="translate(-258.17931,-466.49638)"
     id="layer1">
    <path
       d="M 281.18315,488.32916 C 281.18315,488.32916 283.88813,487.62518 285.99073,488.06581 C 288.0923,488.50334 286.37123,489.73504 286.37123,489.73504 C 286.37123,489.73504 284.30181,490.88898 282.21579,491.24978 C 280.12978,491.6054 281.26402,488.8237 281.26402,488.8237"
       id="path448"
       style="fill:#b59b0c;fill-opacity:1;stroke:#b59b0c;stroke-width:0.42497876;stroke-linecap:butt;stroke-linejoin:miter;stroke-miterlimit:4;stroke-opacity:1" />
    <path
       d="M 273.73924,479.26972 C 273.73924,479.26972 271.9937,484.04412 274.6626,486.00053 C 277.15317,487.81906 279.38122,485.42926 279.72129,485.36084 C 280.00433,485.29967 278.90326,484.66412 278.90326,484.66412 C 278.90326,484.66412 278.36828,485.25923 277.22263,485.59204 C 274.13207,486.48264 273.08316,482.39666 274.09568,479.63466 C 274.12803,479.54965 273.92959,479.11212 273.73924,479.26972 z"
       id="path456"
       style="fill:#b59b0c;fill-opacity:1;stroke:#b59b0c;stroke-width:0.58578432;stroke-linecap:butt;stroke-linejoin:miter;stroke-miterlimit:4;stroke-opacity:1" />
    <path
       d="M 277.74102,477.41905 C 277.74102,477.41905 274.52087,482.21834 276.83384,484.64442 C 278.99242,486.90772 282.05406,484.689 282.4387,484.66412 C 282.75492,484.64027 281.75857,483.8181 281.75857,483.8181 C 281.75857,483.8181 281.01312,484.37693 279.69226,484.56666 C 276.12467,485.08505 276.15298,480.63102 278.01992,477.85243 C 278.08109,477.76741 277.99193,477.28116 277.74102,477.41905 z"
       id="path440"
       style="fill:#b59b0c;fill-opacity:1;stroke:#b59b0c;stroke-width:0.58578432;stroke-linecap:butt;stroke-linejoin:miter;stroke-miterlimit:4;stroke-opacity:1" />
    <path
       d="M 280.40556,487.81491 C 280.40556,487.81491 279.50252,481.78496 282.82335,478.01417 C 286.14832,474.24752 288.07571,472.97228 288.79731,470.94328 C 289.51788,468.906 289.65992,467.03875 289.45256,466.81998 C 289.2421,466.60122 289.02022,467.61416 289.00363,467.86507 C 288.95905,468.54105 288.45725,470.4363 287.65063,471.56639 C 285.43502,474.66949 282.80676,476.16765 281.50352,478.19664 C 280.56316,479.65851 278.80995,482.59469 279.33664,486.5718 C 279.86229,490.54477 280.40556,487.81491 280.40556,487.81491 z"
       id="path392"
       style="fill:#b59b0c;fill-opacity:1;stroke:#b59b0c;stroke-width:0.58578432;stroke-linecap:butt;stroke-linejoin:miter;stroke-miterlimit:4;stroke-opacity:1" />
    <path
       d="M 285.99799,473.77371 C 284.29766,472.06094 284.66157,469.27406 286.04672,468.16884 C 286.0996,468.12426 286.04257,467.67844 285.8404,467.65874 C 285.8404,467.65874 283.00583,469.9179 284.79532,473.13816 C 285.03067,473.56324 285.28987,473.92819 285.55321,474.23197 L 285.99799,473.77371 z"
       id="path408"
       style="fill:#b59b0c;fill-opacity:1;stroke:#b59b0c;stroke-width:0.58578432;stroke-linecap:butt;stroke-linejoin:miter;stroke-miterlimit:4;stroke-opacity:1" />
    <path
       d="M 281.58439,479.4439 C 280.29567,477.72698 280.70105,475.26461 281.98459,474.24338 C 282.03332,474.19879 281.98459,473.75401 281.77412,473.73742 C 281.77412,473.73742 278.9437,475.99347 280.73319,479.21269 C 280.86693,479.45634 281.00483,479.67095 281.14687,479.87313 L 281.58439,479.4439 z"
       id="path416"
       style="fill:#b59b0c;fill-opacity:1;stroke:#b59b0c;stroke-width:0.58578432;stroke-linecap:butt;stroke-linejoin:miter;stroke-miterlimit:4;stroke-opacity:1" />
    <path
       d="M 295.44726,475.28846 C 295.44726,475.28846 296.62505,481.29456 293.2078,482.72014 C 290.02383,484.04412 287.88183,480.63102 287.50548,480.45269 C 287.18511,480.29406 288.56196,479.90112 288.56196,479.90112 C 288.56196,479.90112 289.07206,480.74403 290.33176,481.46874 C 293.73345,483.4376 295.65358,479.07169 294.97345,475.60468 C 294.95271,475.49063 295.25235,475.05 295.44726,475.28846 z"
       id="path400"
       style="fill:#b59b0c;fill-opacity:1;stroke:#b59b0c;stroke-width:0.58578432;stroke-linecap:butt;stroke-linejoin:miter;stroke-miterlimit:4;stroke-opacity:1" />
    <path
       d="M 280.99239,488.00153 C 280.99239,488.00153 283.01412,481.87412 288.78487,480.27021 C 294.55563,478.66216 297.34665,478.78346 299.34662,477.0427 C 301.33932,475.3009 303.42119,471.89091 303.06868,471.83803 C 302.67574,471.78515 301.85045,472.78565 301.67627,473.05729 C 301.22216,473.7903 299.3632,475.94889 297.85675,476.66946 C 295.07402,477.99032 289.15293,478.43925 287.29812,479.39931 C 285.44331,480.36353 281.79486,482.23804 279.91516,487.22394 C 278.03236,492.20155 280.99239,488.00153 280.99239,488.00153 z"
       id="path384"
       style="fill:#b59b0c;fill-opacity:1;stroke:#b59b0c;stroke-width:0.58578432;stroke-linecap:butt;stroke-linejoin:miter;stroke-miterlimit:4;stroke-opacity:1" />
    <path
       d="M 298.83652,476.86852 C 297.78003,474.0215 299.07187,471.01586 301.36835,469.76031 C 301.45751,469.70743 302.03604,469.06774 301.7447,468.97028 C 301.7447,468.97028 296.63749,471.13302 297.71886,476.24852 C 297.79973,476.63317 297.89719,476.98568 298.01434,477.3133 L 298.83652,476.86852 z"
       id="path424"
       style="fill:#b59b0c;fill-opacity:1;stroke:#b59b0c;stroke-width:0.58578432;stroke-linecap:butt;stroke-linejoin:miter;stroke-miterlimit:4;stroke-opacity:1" />
    <path
       d="M 287.16852,477.74668 C 287.16852,477.74668 290.17417,482.72429 287.4609,485.61174 C 284.92492,488.29701 281.85084,486.14257 281.4382,486.15087 C 281.09814,486.15501 282.24793,485.15866 282.24793,485.15866 C 282.24793,485.15866 282.99753,485.7009 284.39512,485.79007 C 288.17732,486.02956 288.57026,481.13282 286.8326,478.24952 C 286.77247,478.1645 286.91347,477.62123 287.16852,477.74668 z"
       id="path432"
       style="fill:#b59b0c;fill-opacity:1;stroke:#b59b0c;stroke-width:0.58578432;stroke-linecap:butt;stroke-linejoin:miter;stroke-miterlimit:4;stroke-opacity:1" />
    <path
       d="M 361.79744,479.51232 C 361.01156,480.52526 361.01156,482.02342 361.01156,483.32355 L 361.01156,494.16937 C 361.01156,495.4695 361.01156,496.96766 361.79744,497.91943 L 357.56114,498.09361 L 357.70317,496.19007 C 357.70317,496.10091 357.62956,496.07291 357.52485,496.07291 C 357.45124,496.07291 357.31023,496.24709 357.09977,496.38913 C 355.71047,497.34505 353.53944,498.38184 350.22691,498.38184 C 346.09531,498.38184 343.3582,497.02468 343.2483,493.4768 L 343.2483,483.32355 C 343.2483,482.02342 343.2483,480.52526 342.46656,479.51232 L 347.23785,479.51232 C 346.45197,480.52526 346.45197,482.02342 346.45197,483.32355 L 346.45197,491.74744 C 346.56187,494.83395 348.12431,496.70846 352.15015,496.70846 C 356.28174,496.70846 357.56114,494.60275 357.66585,491.16891 C 357.70317,490.07096 357.80789,488.94915 357.80789,487.8512 L 357.80789,483.32355 C 357.80789,482.02342 357.80789,480.52526 357.02615,479.51232"
       id="path460"
       style="fill:#002868;fill-opacity:1;fill-rule:nonzero;stroke-width:0;stroke-linecap:butt;stroke-linejoin:miter;stroke-miterlimit:4" />
    <path
       d="M 365.10583,497.91943 C 366.35308,495.55452 366.35308,492.03567 366.35308,489.49554 L 366.35308,483.35258 C 366.35308,481.9384 366.28051,480.37908 365.21573,479.51232 L 368.80819,479.51232 C 369.48418,479.51232 369.80766,479.51232 370.23378,479.97473 C 370.97819,480.78446 373.25912,483.87097 374.36019,485.13793 L 381.44766,493.2456 C 381.69441,493.53382 381.98264,493.93817 382.19311,493.93817 C 382.44401,493.93817 382.44401,493.65098 382.44401,493.39178 L 382.44401,483.20639 C 382.44401,481.24583 382.08735,480.26607 381.5897,479.51232 L 385.29102,479.51232 C 384.43671,480.84148 384.2221,482.33964 384.2221,483.81395 L 384.2221,495.35235 C 384.2221,496.30412 384.25838,497.17087 384.29467,498.03762 L 381.76802,498.03762 L 368.73873,483.00422 C 368.59669,482.83419 368.48783,482.688 368.34579,482.688 C 368.20478,482.688 368.13117,482.86218 368.13117,483.12138 L 368.13117,490.53233 C 368.13117,492.84125 368.06274,495.75669 369.2001,497.91943"
       id="path464"
       style="fill:#002868;fill-opacity:1;fill-rule:nonzero;stroke-width:0;stroke-linecap:butt;stroke-linejoin:miter;stroke-miterlimit:4" />
    <path
       d="M 389.18312,483.29141 C 389.18312,481.99543 389.18312,480.49312 388.40138,479.51232 L 393.17267,479.51232 C 392.38679,480.49312 392.38679,481.99543 392.38679,483.29141 L 392.38679,494.14138 C 392.38679,495.43736 392.38679,496.93967 393.17267,497.91943 L 388.40138,497.91943 C 389.18312,496.93967 389.18312,495.43736 389.18312,494.14138"
       id="path468"
       style="fill:#002868;fill-opacity:1;fill-rule:nonzero;stroke-width:0;stroke-linecap:butt;stroke-linejoin:miter;stroke-miterlimit:4" />
    <path
       d="M 401.97706,498.03762 L 401.44208,496.56331 C 399.76975,491.94961 397.27835,484.85074 394.7517,480.49312 L 394.18043,479.51232 L 397.35196,479.51232 C 398.06009,479.51232 398.23841,480.1769 398.41674,480.61028 C 400.2674,485.0809 402.33268,489.52457 403.82773,494.08436 C 404.00606,494.63074 404.18438,494.91897 404.399,494.91897 C 404.61361,494.91897 404.82408,494.45656 405.00241,494.02319 C 406.03505,491.48824 410.37607,483.26342 410.37607,480.55326 C 410.37607,480.1769 410.30764,479.83269 410.19774,479.51232 L 414.61653,479.51232 L 413.97268,480.4361 C 410.59069,485.3401 407.84942,491.16891 405.42749,496.4783 L 404.71833,498.03762"
       id="path472"
       style="fill:#002868;fill-opacity:1;fill-rule:nonzero;stroke-width:0;stroke-linecap:butt;stroke-linejoin:miter;stroke-miterlimit:4" />
    <path
       d="M 419.97464,496.76549 L 424.06891,496.76549 C 426.27623,496.76549 428.55301,496.33211 430.22949,495.12114 L 429.58565,497.77428 C 428.62559,497.83441 427.45091,497.91943 426.16736,497.91943 L 415.88037,497.91943 C 416.66211,496.93967 416.77097,495.43736 416.77097,494.14138 L 416.77097,483.29141 C 416.77097,481.99543 416.77097,480.49312 415.98509,479.51232 L 428.41097,479.51232 L 428.55301,481.73623 C 427.30887,480.86948 425.38563,480.6673 423.28406,480.6673 L 419.97464,480.6673 L 419.97464,487.56401 C 422.71694,487.56401 425.60024,487.56401 428.3384,487.36183 C 427.09425,489.00618 423.07256,489.00618 420.86213,489.00618 L 419.97464,489.00618"
       id="path476"
       style="fill:#002868;fill-opacity:1;fill-rule:nonzero;stroke-width:0;stroke-linecap:butt;stroke-linejoin:miter;stroke-miterlimit:4" />
    <path
       d="M 436.45436,487.8232 C 436.9883,487.88023 437.52329,487.90822 438.05827,487.90822 C 441.51284,487.90822 443.39979,486.41006 443.39979,483.66776 C 443.39979,480.78446 441.36665,480.4361 438.19927,480.37908 L 436.52693,480.37908 C 436.49065,480.81245 436.45436,481.30285 436.45436,481.76422 L 436.45436,487.8232 z M 447.5262,495.2383 C 448.55573,496.3601 449.05753,496.82251 450.51526,497.91943 L 447.59981,497.91943 C 446.06848,497.91943 445.38835,497.25589 444.60661,496.33211 L 440.26455,491.31406 C 438.76639,489.58056 438.51964,489.09119 436.45436,488.94915 L 436.45436,494.14138 C 436.45436,495.43736 436.45436,496.93967 437.23921,497.91943 L 432.29063,497.91943 C 433.32326,496.59131 433.25069,495.20616 433.25069,493.9672 L 433.25069,483.29141 C 433.25069,481.99543 433.25069,480.49312 432.46895,479.51232 C 435.45801,479.51232 438.30502,479.22513 441.08257,479.22513 C 444.71547,479.22513 446.59931,480.84148 446.59931,483.09338 C 446.59931,485.74548 443.8933,487.47484 441.33451,488.3136"
       id="path480"
       style="fill:#002868;fill-opacity:1;fill-rule:nonzero;stroke-width:0;stroke-linecap:butt;stroke-linejoin:miter;stroke-miterlimit:4" />
    <path
       d="M 450.62101,494.31556 C 451.68994,495.52653 453.22127,497.22686 456.95888,497.22686 C 459.66386,497.22686 461.69285,495.93087 461.69285,493.62299 C 461.69285,488.77497 451.51161,489.38253 451.51161,484.04412 C 451.51161,480.6953 454.89361,479.05095 458.66751,479.05095 C 460.51921,479.05095 462.33358,479.22513 464.15107,479.22513 L 464.15107,481.90626 C 462.5482,480.55326 461.58814,480.2049 459.20249,480.2049 C 456.70798,480.2049 454.85732,481.21784 454.85732,483.38057 C 454.85732,487.8232 465.03856,487.27267 465.03856,492.78423 C 465.03856,496.3601 460.73382,498.38184 456.74427,498.38184 C 455.00247,498.38184 452.2612,497.91943 450.62101,497.37304"
       id="path484"
       style="fill:#002868;fill-opacity:1;fill-rule:nonzero;stroke-width:0;stroke-linecap:butt;stroke-linejoin:miter;stroke-miterlimit:4" />
    <path
       d="M 468.72019,483.29141 C 468.72019,481.99543 468.72019,480.49312 467.93845,479.51232 L 472.70456,479.51232 C 471.92386,480.49312 471.92386,481.99543 471.92386,483.29141 L 471.92386,494.14138 C 471.92386,495.43736 471.92386,496.93967 472.70456,497.91943 L 467.93845,497.91943 C 468.72019,496.93967 468.72019,495.43736 468.72019,494.14138"
       id="path488"
       style="fill:#002868;fill-opacity:1;fill-rule:nonzero;stroke-width:0;stroke-linecap:butt;stroke-linejoin:miter;stroke-miterlimit:4" />
    <path
       d="M 481.12119,497.91943 C 481.90293,496.93967 481.90293,495.43736 481.90293,494.14138 L 481.90293,480.95864 L 477.16792,480.95864 C 476.3499,480.95864 475.53188,481.04366 474.64128,481.59004 L 475.35355,479.51232 L 493.25885,479.51232 C 492.65129,480.75647 490.48026,480.95864 489.02254,480.95864 L 485.10556,480.95864 L 485.10556,494.14138 C 485.10556,495.43736 485.10556,496.93967 485.8873,497.91943"
       id="path492"
       style="fill:#002868;fill-opacity:1;fill-rule:nonzero;stroke-width:0;stroke-linecap:butt;stroke-linejoin:miter;stroke-miterlimit:4" />
    <path
       d="M 499.34582,497.91943 C 500.13171,496.93967 500.13171,495.43736 500.13171,494.14138 L 500.13171,491.51727 C 500.13171,489.49554 499.06174,487.56401 497.63616,485.1991 C 496.21473,482.83419 494.3962,480.58229 492.93848,479.51232 L 496.00011,479.51232 C 497.28054,479.51232 497.53145,479.77152 498.17114,480.61028 C 499.56044,482.40081 501.19649,485.68846 501.87247,487.73404 C 502.01451,488.16742 502.15655,488.60079 502.43959,488.60079 C 502.65421,488.60079 502.90511,488.11039 503.26176,487.592 L 505.6837,484.10114 C 506.50172,482.9472 507.28346,481.53406 507.28346,480.6673 C 507.28346,480.23807 507.14142,479.86068 506.74848,479.51232 L 511.23673,479.51232 L 507.17771,484.61953 C 504.6832,487.70605 503.33434,489.12333 503.33434,492.93041 L 503.33434,494.14138 C 503.33434,495.43736 503.33434,496.93967 504.11608,497.91943"
       id="path496"
       style="fill:#002868;fill-opacity:1;fill-rule:nonzero;stroke-width:0;stroke-linecap:butt;stroke-linejoin:miter;stroke-miterlimit:4" />
    <path
       d="M 531.48205,480.32309 C 526.35514,480.32309 524.14783,484.13017 524.14783,488.28457 C 524.14783,492.09165 525.75174,497.11385 531.48205,497.11385 C 536.60482,497.11385 538.81213,493.30262 538.81213,489.15133 C 538.81213,485.3401 537.21237,480.32309 531.48205,480.32309 z M 531.19486,498.38184 C 523.72274,498.38184 520.44546,494.2264 520.44546,489.09119 C 520.44546,483.61178 524.36244,479.05095 531.7651,479.05095 C 539.24136,479.05095 542.51761,483.20639 542.51761,488.3416 C 542.51761,493.82101 538.60167,498.38184 531.19486,498.38184"
       id="path500"
       style="fill:#002868;fill-opacity:1;fill-rule:nonzero;stroke-width:0;stroke-linecap:butt;stroke-linejoin:miter;stroke-miterlimit:4" />
    <path
       d="M 549.42364,494.14138 C 549.42364,495.43736 549.42364,496.93967 550.20434,497.91943 L 545.43409,497.91943 C 546.21997,496.93967 546.21997,495.43736 546.21997,494.14138 L 546.21997,483.29141 C 546.21997,481.99543 546.2884,480.49312 545.50666,479.51232 L 556.54325,479.51232 C 557.42971,479.51232 558.1793,479.51232 558.1793,479.77152 L 558.1793,482.02342 L 558.00098,482.02342 C 557.00462,480.6953 554.76102,480.6673 553.08868,480.6673 L 549.42364,480.6673 L 549.42364,488.0824 C 552.16076,488.0824 555.04821,488.0824 557.78636,487.88023 C 556.54325,489.52457 552.51741,489.52457 550.31009,489.52457 L 549.42364,489.52457"
       id="path504"
       style="fill:#002868;fill-opacity:1;fill-rule:nonzero;stroke-width:0;stroke-linecap:butt;stroke-linejoin:miter;stroke-miterlimit:4" />
    <path
       d="M 341.70971,536.7025 C 343.84341,539.41577 346.90608,543.23011 354.38131,543.23011 C 359.7923,543.23011 363.85028,540.32296 363.85028,535.15043 C 363.85028,524.3015 343.4878,525.65761 343.4878,513.70658 C 343.4878,506.20957 350.25075,502.52898 357.7996,502.52898 C 361.50196,502.52898 365.13486,502.91778 368.76361,502.91778 L 368.76361,508.92388 C 365.55994,505.8861 363.63567,505.11265 358.86956,505.11265 C 353.88365,505.11265 350.18233,507.37181 350.18233,512.21982 C 350.18233,522.16675 370.54066,520.9392 370.54066,533.28007 C 370.54066,541.29028 361.92704,545.81481 353.95208,545.81481 C 350.46537,545.81481 344.98181,544.77803 341.70971,543.55047"
       id="path508"
       style="fill:#002868;fill-opacity:1;fill-rule:nonzero;stroke-width:0;stroke-linecap:butt;stroke-linejoin:miter;stroke-miterlimit:4" />
    <path
       d="M 412.61553,503.56162 C 411.0448,505.82078 411.0448,509.18308 411.0448,512.09023 L 411.0448,536.37798 C 411.0448,539.28617 411.0448,542.64743 412.61553,544.77803 L 404.1398,545.16682 L 404.42699,540.90148 C 404.42699,540.7076 404.28495,540.64229 404.07034,540.64229 C 403.92933,540.64229 403.64111,541.03108 403.21602,541.3556 C 400.43744,543.48619 396.66768,545.81481 390.04573,545.81481 C 381.78772,545.81481 376.30416,542.77703 376.08954,534.8311 L 376.08954,512.09023 C 376.08954,509.18308 376.08954,505.82078 374.52192,503.56162 L 384.06347,503.56162 C 382.49688,505.82078 382.49688,509.18308 382.49688,512.09023 L 382.49688,530.95559 C 382.7115,537.86474 385.8457,542.06372 393.88909,542.06372 C 402.1471,542.06372 404.1398,537.35049 404.35442,529.65961 C 404.42699,527.2045 404.63746,524.68614 404.63746,522.23207 L 404.63746,512.09023 C 404.63746,509.18308 404.63746,505.82078 403.07398,503.56162"
       id="path512"
       style="fill:#002868;fill-opacity:1;fill-rule:nonzero;stroke-width:0;stroke-linecap:butt;stroke-linejoin:miter;stroke-miterlimit:4" />
    <path
       d="M 425.83456,522.16675 C 426.90452,522.29635 427.97345,522.36167 429.04237,522.36167 C 435.94737,522.36167 439.72231,519.00352 439.72231,512.86367 C 439.72231,506.40449 435.66433,505.63105 429.32645,505.50145 L 425.98074,505.50145 C 425.90817,506.46877 425.83456,507.56673 425.83456,508.59937 L 425.83456,522.16675 z M 447.98031,538.77192 C 450.04145,541.29028 451.04194,542.32292 453.95739,544.77803 L 448.12235,544.77803 C 445.05969,544.77803 443.70772,543.29542 442.1401,541.226 L 433.45701,529.98309 C 430.46381,526.10758 429.96615,525.00962 425.83456,524.68614 L 425.83456,536.31681 C 425.83456,539.225 425.83456,542.58211 427.40218,544.77803 L 417.50812,544.77803 C 419.5734,541.80867 419.4324,538.70661 419.4324,535.92802 L 419.4324,512.02595 C 419.4324,509.11776 419.4324,505.76065 417.86478,503.56162 C 423.84289,503.56162 429.54107,502.91778 435.09306,502.91778 C 442.35471,502.91778 446.12965,506.53409 446.12965,511.57183 C 446.12965,517.5178 440.71866,521.39331 435.59175,523.26886"
       id="path516"
       style="fill:#002868;fill-opacity:1;fill-rule:nonzero;stroke-width:0;stroke-linecap:butt;stroke-linejoin:miter;stroke-miterlimit:4" />
    <path
       d="M 462.12208,522.16675 C 463.1879,522.29635 464.25682,522.36167 465.32575,522.36167 C 472.23075,522.36167 476.00569,519.00352 476.00569,512.86367 C 476.00569,506.40449 471.9477,505.63105 465.60983,505.50145 L 462.26412,505.50145 C 462.19569,506.46877 462.12208,507.56673 462.12208,508.59937 L 462.12208,522.16675 z M 484.81837,538.77192 C 486.88365,541.29028 487.88415,542.32292 490.80063,544.77803 L 484.96456,544.77803 C 481.90293,544.77803 480.54992,543.29542 478.9823,541.226 L 470.29507,529.98309 C 467.30601,526.10758 466.80835,525.00962 462.6778,524.68614 L 462.6778,536.31681 C 462.6778,539.225 462.6778,542.58211 464.24438,544.77803 L 454.34618,544.77803 C 456.4125,541.80867 456.27046,538.70661 456.27046,535.92802 L 456.27046,512.02595 C 456.27046,509.11776 456.27046,505.76065 454.70284,503.56162 C 460.68509,503.56162 466.37913,502.91778 471.93112,502.91778 C 479.19692,502.91778 482.96771,506.53409 482.96771,511.57183 C 482.96771,517.5178 477.56087,521.39331 472.43396,523.26886"
       id="path520"
       style="fill:#002868;fill-opacity:1;fill-rule:nonzero;stroke-width:0;stroke-linecap:butt;stroke-linejoin:miter;stroke-miterlimit:4" />
    <path
       d="M 499.6496,542.19332 L 507.83814,542.19332 C 512.24863,542.19332 516.80531,541.226 520.15413,538.51273 L 518.87058,544.45766 C 516.94631,544.58311 514.59799,544.77803 512.03401,544.77803 L 491.46003,544.77803 C 493.02765,542.58211 493.24226,539.225 493.24226,536.31681 L 493.24226,512.02595 C 493.24226,509.11776 493.24226,505.76065 491.67049,503.56162 L 516.52123,503.56162 L 516.80531,508.53509 C 514.30976,506.59837 510.46639,506.14529 506.26741,506.14529 L 499.6496,506.14529 L 499.6496,521.58719 C 505.12902,521.58719 510.89562,521.58719 516.37919,521.13411 C 513.88883,524.81574 505.84129,524.81574 501.42769,524.81574 L 499.6496,524.81574"
       id="path524"
       style="fill:#002868;fill-opacity:1;fill-rule:nonzero;stroke-width:0;stroke-linecap:butt;stroke-linejoin:miter;stroke-miterlimit:4" />
    <path
       d="M 530.93878,544.77803 C 532.5064,542.58211 532.5064,539.225 532.5064,536.31681 L 532.5064,530.4372 C 532.5064,525.91266 530.37269,521.58719 527.52464,516.29025 C 524.67348,510.99331 521.04161,505.95452 518.12513,503.56162 L 524.24839,503.56162 C 526.81237,503.56162 527.47695,504.03958 528.59046,506.01569 C 531.32446,510.87926 533.98486,517.23372 535.99311,521.97598 C 536.3902,522.90391 536.56438,523.9127 537.13565,523.9127 C 537.56073,523.9127 538.05943,522.81474 538.7717,521.65251 L 543.61142,513.83617 C 545.25161,511.24836 546.81509,508.08512 546.81509,506.14529 C 546.81509,505.17693 546.53205,504.33921 545.75031,503.56162 L 554.72058,503.56162 L 546.60462,514.99426 C 541.61871,521.90756 538.91374,525.07494 538.91374,533.60354 L 538.91374,536.31681 C 538.91374,539.225 538.91374,542.58211 540.48136,544.77803"
       id="path528"
       style="fill:#002868;fill-opacity:1;fill-rule:nonzero;stroke-width:0;stroke-linecap:butt;stroke-linejoin:miter;stroke-miterlimit:4" />
    <path
       d="M 286.48839,548.95731 C 298.1201,546.79458 312.13227,548.42648 319.66556,549.52858 C 323.85728,550.1434 325.26317,549.81163 325.26317,549.81163 C 325.26317,549.81163 320.88067,548.94073 318.42245,548.244 C 306.27235,544.79358 273.65826,539.12028 271.80335,555.08472 C 271.80335,555.08472 275.93028,550.92513 286.48839,548.95731"
       id="path532"
       style="fill:#b59b0c;fill-opacity:1;fill-rule:nonzero;stroke-width:0;stroke-linecap:butt;stroke-linejoin:miter;stroke-miterlimit:4" />
    <path
       d="M 277.87062,538.88079 C 279.11788,538.88079 280.12978,539.93831 280.12978,541.24155 C 280.12978,542.54583 279.11788,543.6075 277.87062,543.6075 C 276.61881,543.6075 275.61032,542.54583 275.61032,541.24155 C 275.61032,539.93831 276.61881,538.88079 277.87062,538.88079 z M 322.06779,523.22013 C 321.87702,521.8101 322.45658,515.16844 322.45658,515.16844 L 323.03096,522.21133 C 323.03096,522.21133 324.36323,520.1502 324.57059,515.77185 C 324.81735,510.60866 322.25337,507.04419 318.23997,505.72436 C 316.23587,505.06392 314.44534,505.45687 313.19393,505.58646 C 309.24067,505.99496 305.73011,505.66319 304.23092,505.7285 C 295.33736,506.13285 293.09376,503.31383 291.38513,500.68143 C 288.11303,495.63539 287.49304,496.3684 284.26552,489.91751 C 281.55121,484.49408 279.065,487.87608 274.64642,489.26952 C 273.33831,489.68216 268.90366,491.33895 268.54722,491.50068 C 268.18683,491.66242 268.29206,492.62249 268.30824,492.9667 C 268.32451,493.21346 269.39769,494.29897 269.71764,494.43272 C 270.0376,494.57061 276.40409,496.19007 278.22209,496.66388 C 278.22209,496.66388 278.89911,498.1299 277.34808,503.54089 C 276.16117,507.66004 277.54611,510.03324 277.54611,510.03324 C 277.54611,510.03324 275.1446,508.37231 272.96165,506.85031 C 270.75443,505.30653 263.76017,508.40134 259.63334,511.38936 C 257.94856,512.60862 258.19148,514.31413 258.19148,514.31413 L 260.22462,518.7889 L 262.12806,517.69924 L 262.15232,517.68784 L 262.15232,517.68784 C 261.44772,517.48048 260.93337,516.82108 260.93337,516.04349 C 260.93337,515.10416 261.68659,514.33383 262.6141,514.33383 C 263.54151,514.33383 264.29888,515.10416 264.29888,516.04349 C 264.29888,516.08393 264.29473,516.12021 264.29473,516.16065 L 264.29069,516.1845 C 264.54989,515.58109 265.14531,515.156 265.83374,515.156 C 266.76125,515.156 267.51447,515.9253 267.51447,516.86566 C 267.51447,517.80914 266.76125,518.57429 265.83374,518.57429 C 265.78511,518.57429 265.74064,518.57014 265.69605,518.56599 L 265.69201,518.57014 C 266.1456,518.87807 266.44534,519.40061 266.44534,519.99158 C 266.44534,520.93609 265.68797,521.70124 264.76056,521.70124 C 263.83305,521.70124 263.07983,520.93609 263.07983,519.99158 C 263.07983,519.82984 263.10409,519.67225 263.14463,519.52606 L 263.13654,519.52191 L 263.11217,519.53021 L 261.13181,520.44154 L 263.10813,524.39066 L 268.70522,521.6691 L 274.7274,536.00993 L 272.13139,544.35606 L 280.6969,547.50685 L 283.79482,538.99069 L 277.39992,535.29662 L 266.88266,510.43863 L 267.10142,510.34117 C 268.15438,509.94823 269.2033,509.59157 270.18741,509.31268 C 272.23672,508.73311 278.21484,517.62667 279.37293,518.37211 C 281.09399,519.47733 282.10278,519.2876 283.15927,519.33633 L 283.10639,519.29174 C 282.97265,519.19014 282.83164,519.07713 282.67716,518.95894 C 277.28691,514.78794 279.47038,506.92703 279.47038,506.92703 C 279.58339,514.93724 284.27693,520.06519 284.41896,520.40111 L 284.46355,520.46953 C 284.56515,520.63231 284.66987,520.81789 284.77562,521.02421 C 286.31836,524.0423 283.96589,545.76194 283.96589,545.76194 L 286.28207,544.81017 C 286.28207,544.81017 290.44166,523.22739 291.06891,523.34558 C 301.16929,525.15996 305.85556,517.25861 309.7518,532.07739 C 310.31789,534.22354 298.00605,544.76973 298.00605,544.76973 C 298.00605,544.76973 300.41658,545.17408 302.1335,543.90298 C 306.76275,540.46396 315.1742,531.76532 314.75741,531.47398 C 314.1737,531.0686 312.44434,527.64617 312.44434,527.04276 C 312.44434,526.5731 312.79685,524.75872 313.31524,524.1719 L 313.31109,524.16775 C 313.18149,524.10243 313.0436,524.02986 312.89016,523.95314 C 307.26455,521.10923 307.26455,512.09852 307.26455,512.09852 C 309.22926,520.40525 314.2753,524.4228 314.69209,524.87588 C 316.51891,526.84473 320.24927,531.61913 320.5603,533.5714 C 320.94495,535.98919 311.58173,547.08591 311.58173,547.08591 C 311.58173,547.08591 315.27995,547.63334 315.89476,546.102 C 316.35302,544.96361 325.75668,533.16602 325.5628,532.16241 C 325.37203,531.15776 322.26167,524.62912 322.06779,523.22013"
       id="path536"
       style="fill:#b59b0c;fill-opacity:1;fill-rule:nonzero;stroke-width:0;stroke-linecap:butt;stroke-linejoin:miter;stroke-miterlimit:4" />
  </g>
</svg>
